<svg xmlns="http://www.w3.org/2000/svg" viewBox="0 0 400 20" width="400" height="20">
  <g fill="none" stroke="#f9d9d9" stroke-width="1.5">
    <path d="M0,10 Q5,0 10,10 Q15,20 20,10 Q25,0 30,10 Q35,20 40,10 Q45,0 50,10 Q55,20 60,10 Q65,0 70,10 Q75,20 80,10 Q85,0 90,10 Q95,20 100,10 Q105,0 110,10 Q115,20 120,10 Q125,0 130,10 Q135,20 140,10 Q145,0 150,10 Q155,20 160,10 Q165,0 170,10 Q175,20 180,10 Q185,0 190,10 Q195,20 200,10 Q205,0 210,10 Q215,20 220,10 Q225,0 230,10 Q235,20 240,10 Q245,0 250,10 Q255,20 260,10 Q265,0 270,10 Q275,20 280,10 Q285,0 290,10 Q295,20 300,10 Q305,0 310,10 Q315,20 320,10 Q325,0 330,10 Q335,20 340,10 Q345,0 350,10 Q355,20 360,10 Q365,0 370,10 Q375,20 380,10 Q385,0 390,10 Q395,20 400,10"/>
  </g>
</svg> 